<svg width="20" height="20" viewBox="0 0 20 20" fill="none" xmlns="http://www.w3.org/2000/svg">
<g clip-path="url(#clip0_818_37)">
<path d="M20 10.0652C20 4.54233 15.5229 0.0651855 10 0.0651855C4.47715 0.0651855 0 4.54233 0 10.0652C0 15.0564 3.65684 19.1935 8.4375 19.9437V12.9558H5.89844V10.0652H8.4375V7.86206C8.4375 5.35581 9.93047 3.97144 12.2146 3.97144C13.3084 3.97144 14.4531 4.16675 14.4531 4.16675V6.62769H13.1922C11.95 6.62769 11.5625 7.39858 11.5625 8.19019V10.0652H14.3359L13.8926 12.9558H11.5625V19.9437C16.3432 19.1935 20 15.0564 20 10.0652Z" fill="#1C1C1C"/>
</g>
<defs>
<clipPath id="clip0_818_37">
<rect width="20" height="20" fill="white"/>
</clipPath>
</defs>
</svg>
