<svg width="24" height="24" viewBox="0 0 24 24" fill="none" xmlns="http://www.w3.org/2000/svg">
<path d="M20.4722 15.2307L16.0556 13.2516L16.0434 13.246C15.8142 13.1479 15.564 13.1086 15.3157 13.1315C15.0674 13.1544 14.8287 13.2389 14.6213 13.3772C14.5968 13.3934 14.5734 13.4109 14.5509 13.4297L12.2691 15.3751C10.8234 14.6729 9.33095 13.1916 8.62876 11.7647L10.5769 9.44818C10.5956 9.42474 10.6134 9.4013 10.6303 9.37599C10.7657 9.16909 10.8479 8.93192 10.8695 8.68559C10.8911 8.43927 10.8514 8.19142 10.7541 7.96412V7.95287L8.76938 3.5288C8.6407 3.23187 8.41944 2.98451 8.13862 2.82365C7.8578 2.6628 7.5325 2.59708 7.21126 2.6363C5.94092 2.80347 4.77486 3.42734 3.93088 4.39139C3.0869 5.35545 2.62271 6.59376 2.62501 7.87505C2.62501 15.3188 8.68126 21.3751 16.125 21.3751C17.4063 21.3773 18.6446 20.9132 19.6087 20.0692C20.5727 19.2252 21.1966 18.0591 21.3638 16.7888C21.4031 16.4677 21.3375 16.1424 21.1768 15.8616C21.0161 15.5808 20.769 15.3595 20.4722 15.2307ZM16.125 19.8751C12.9435 19.8716 9.89325 18.6062 7.64356 16.3565C5.39388 14.1068 4.12848 11.0566 4.12501 7.87505C4.12148 6.95958 4.45131 6.07411 5.05289 5.38403C5.65447 4.69395 6.48667 4.24643 7.39407 4.12505C7.3937 4.1288 7.3937 4.13256 7.39407 4.1363L9.36282 8.54255L7.42501 10.8619C7.40534 10.8846 7.38747 10.9087 7.37157 10.9341C7.23049 11.1506 7.14773 11.3999 7.1313 11.6577C7.11488 11.9156 7.16535 12.1734 7.27782 12.406C8.1272 14.1432 9.87751 15.8804 11.6334 16.7288C11.8678 16.8402 12.127 16.8889 12.3858 16.8702C12.6446 16.8515 12.8942 16.7659 13.11 16.6219C13.1341 16.6057 13.1572 16.5882 13.1794 16.5694L15.4584 14.6251L19.8647 16.5985C19.8647 16.5985 19.8722 16.5985 19.875 16.5985C19.7551 17.5072 19.3083 18.3411 18.6181 18.9441C17.9278 19.5472 17.0416 19.8781 16.125 19.8751Z" fill="#1C1C1C"/>
</svg>
