<svg width="106" height="106" viewBox="0 0 106 106" fill="none" xmlns="http://www.w3.org/2000/svg">
<path d="M62.4614 9.52813L64.0668 26.6662L77.4983 15.9013L72.8043 32.462L89.2176 27.276L78.8581 41.0227L96.0364 42.1161L81.4106 51.1922L97.034 58.4173L80.1171 61.5971L92.0755 73.9781L75.1523 70.8321L81.8306 86.6969L67.1867 77.6499L67.683 94.8559L57.296 81.1299L51.5433 97.3533L46.8162 80.802L35.5914 93.8517L37.1625 76.7104L21.9816 84.8241L29.6388 69.4079L12.552 71.4896L25.261 59.8805L8.57608 55.6493L24.6206 49.4151L10.5909 39.4423L27.804 39.4251L18.3242 25.0576L34.3812 31.2596L30.7317 14.4378L43.464 26.0215L46.1377 9.01733L53.8256 24.4182L62.4614 9.52813Z" fill="#1F4692"/>
<path d="M48.1602 43.8154C48.2434 43.8634 48.3324 43.9332 48.4075 43.9951C48.4826 44.057 48.5796 44.113 48.6548 44.1748C48.7358 44.2585 48.8109 44.3204 48.878 44.3961C48.9372 44.4857 49.0043 44.5614 49.0635 44.651C49.1306 44.7267 49.1897 44.8162 49.2489 44.9058C49.2942 44.9874 49.3533 45.0769 49.3906 45.1724C49.4279 45.2678 49.4571 45.3771 49.4806 45.4645C49.5098 45.5738 49.5471 45.6692 49.5626 45.7705C49.5918 45.8798 49.6073 45.9811 49.6227 46.0823C49.6381 46.1836 49.6535 46.2849 49.6471 46.392C49.6487 46.4853 49.6284 46.5845 49.6001 46.6975C49.5937 46.8046 49.5734 46.9037 49.5531 47.0029C49.5328 47.102 49.5125 47.2011 49.4784 47.2923C49.4362 47.3973 49.4021 47.4884 49.3541 47.5716C49.3258 47.6845 49.2778 47.7677 49.2357 47.8727L49.2277 47.8865C49.0891 47.8065 49.1051 47.7788 48.9804 47.7068C48.8418 47.6268 48.8418 47.6268 48.7171 47.5548C48.5786 47.4748 48.5786 47.4748 48.4538 47.4028C48.3153 47.3228 48.2913 47.3644 48.1746 47.2785C48.1607 47.2705 48.1687 47.2567 48.1687 47.2567C48.2247 47.1597 48.2727 47.0765 48.3069 46.9854C48.341 46.8943 48.3693 46.7813 48.3677 46.688C48.388 46.5889 48.3944 46.4817 48.4009 46.3746C48.3993 46.2813 48.4057 46.1742 48.3903 46.0729C48.3669 45.9855 48.3296 45.89 48.2923 45.7946C48.255 45.6992 48.2178 45.6037 48.1805 45.5083C48.1352 45.4268 48.0761 45.3372 48.0169 45.2476C47.9418 45.1858 47.8746 45.11 47.7856 45.0402C47.7105 44.9783 47.6274 44.9303 47.5442 44.8823C47.4472 44.8263 47.3641 44.7783 47.273 44.7442C47.168 44.702 47.0688 44.6818 46.9697 44.6615C46.8705 44.6412 46.7714 44.6209 46.6643 44.6145C46.571 44.616 46.4697 44.6315 46.3684 44.6469C46.2671 44.6623 46.1717 44.6996 46.0763 44.7369C45.967 44.7662 45.8854 44.8114 45.7959 44.8706C45.7063 44.9297 45.6306 44.9969 45.5687 45.072C45.4792 45.1311 45.3976 45.1764 45.3139 45.2574C45.252 45.3325 45.204 45.4157 45.148 45.5127C45.084 45.6235 45.084 45.6235 45.02 45.7344C44.964 45.8314 44.9299 45.9225 44.8957 46.0137C44.8536 46.1187 44.8333 46.2178 44.8349 46.3111C44.8066 46.4241 44.7863 46.5232 44.774 46.6085C44.7814 46.7236 44.8049 46.8111 44.8341 46.9203C44.8357 47.0136 44.8511 47.1149 44.8804 47.2242C44.9257 47.3057 44.9848 47.3953 45.044 47.4849C45.0893 47.5665 45.1484 47.656 45.2155 47.7317C45.2688 47.7995 45.3498 47.8832 45.425 47.945C45.4921 48.0207 45.5672 48.0826 45.6562 48.1524L45.6802 48.1109C45.7554 48.1727 45.8305 48.2346 45.9195 48.3044C45.9946 48.3663 46.0916 48.4223 46.1668 48.4842C46.2339 48.5599 46.3229 48.6297 46.39 48.7054C46.4572 48.7812 46.5243 48.8569 46.5915 48.9326C46.6506 49.0221 46.6879 49.1176 46.739 49.221C46.7843 49.3026 46.8216 49.398 46.8727 49.5014C46.918 49.583 46.9771 49.6726 47.0144 49.768C47.0298 49.8693 47.0453 49.9705 47.0527 50.0857C47.0761 50.1731 47.1054 50.2824 47.1208 50.3837C47.1224 50.477 47.1298 50.5921 47.1314 50.6854C47.125 50.7925 47.1185 50.8997 47.1201 50.9929C47.1137 51.1001 47.0934 51.1992 47.0512 51.3042C47.0448 51.4113 47.0245 51.5105 46.9904 51.6016C46.9562 51.6928 46.9141 51.7978 46.8661 51.8809C46.824 51.9859 46.7898 52.077 46.7557 52.1682C46.6837 52.2929 46.656 52.2769 46.592 52.3877C46.536 52.4847 46.5157 52.5839 46.4597 52.6809C46.384 52.748 46.3082 52.8151 46.2325 52.8823C46.1765 52.9793 46.1008 53.0464 46.039 53.1215C45.9552 53.2025 45.8795 53.2697 45.8038 53.3368C45.7142 53.396 45.6188 53.4332 45.5234 53.4705C45.4338 53.5297 45.3523 53.5749 45.2488 53.6261C45.1534 53.6634 45.058 53.7006 44.9626 53.7379C44.8613 53.7533 44.752 53.7826 44.6507 53.7981C44.5633 53.8215 44.454 53.8508 44.3527 53.8662C44.2514 53.8816 44.1582 53.8832 44.043 53.8906C43.9497 53.8922 43.8426 53.8857 43.7435 53.8655C43.6443 53.8452 43.5452 53.8249 43.4322 53.7966C43.3389 53.7982 43.2398 53.7779 43.1268 53.7496C43.0356 53.7155 42.9306 53.6733 42.8475 53.6253C42.7564 53.5912 42.6514 53.549 42.5682 53.501C42.4712 53.445 42.3881 53.397 42.2911 53.341C42.216 53.2792 42.135 53.1955 42.0678 53.1197C41.9927 53.0579 41.9256 52.9822 41.8584 52.9065C41.7774 52.8227 41.7103 52.747 41.6431 52.6713C41.584 52.5817 41.5467 52.4863 41.5014 52.4048C41.4503 52.3013 41.405 52.2198 41.3677 52.1243C41.3086 52.0348 41.2575 51.9313 41.2122 51.8498C41.1829 51.7405 41.1675 51.6392 41.152 51.5379C41.1148 51.4425 41.0993 51.3412 41.0839 51.2399C41.0685 51.1387 41.0749 51.0315 41.0675 50.9164C41.0798 50.8311 41.0942 50.7101 41.1145 50.611C41.1129 50.5177 41.1194 50.4105 41.1258 50.3034C41.1461 50.2043 41.1882 50.0993 41.2085 50.0001C41.2426 49.909 41.2848 49.804 41.3328 49.7209C41.3749 49.6159 41.4506 49.5487 41.5066 49.4517C41.5066 49.4517 41.4789 49.4357 41.4928 49.4437C41.6175 49.5157 41.6095 49.5296 41.7481 49.6096C41.8728 49.6816 41.8888 49.6539 42.0273 49.7339C42.152 49.8059 42.16 49.792 42.2986 49.872C42.4233 49.944 42.4313 49.9302 42.5619 50.024L42.5182 50.0357C42.476 50.1407 42.428 50.2239 42.4077 50.323C42.3736 50.4141 42.3672 50.5213 42.3469 50.6204C42.3404 50.7276 42.3202 50.8267 42.3217 50.92C42.3153 51.0271 42.3169 51.1204 42.3323 51.2217C42.3477 51.323 42.377 51.4322 42.4004 51.5197C42.4377 51.6151 42.4888 51.7185 42.5341 51.8001C42.5794 51.8817 42.6385 51.9712 42.7057 52.0469C42.7728 52.1227 42.8618 52.1925 42.945 52.2405C43.0201 52.3024 43.0952 52.3642 43.1922 52.4202C43.2754 52.4682 43.3585 52.5162 43.4496 52.5504C43.5546 52.5925 43.6538 52.6128 43.7529 52.6331C43.8521 52.6534 43.9512 52.6737 44.0445 52.6721C44.1596 52.6647 44.2609 52.6492 44.3483 52.6258C44.4496 52.6104 44.545 52.5731 44.6325 52.5497C44.7417 52.5204 44.8372 52.4831 44.9187 52.4378C45.0142 52.4005 45.1037 52.3414 45.1794 52.2743C45.2552 52.2071 45.325 52.1181 45.373 52.035C45.4487 51.9679 45.4967 51.8847 45.5527 51.7877C45.6167 51.6769 45.6167 51.6769 45.6887 51.5522C45.7367 51.469 45.7847 51.3859 45.8189 51.2948C45.861 51.1898 45.8952 51.0986 45.9154 50.9995C45.9357 50.9003 45.9422 50.7932 45.9486 50.6861C45.9332 50.5848 45.9177 50.4835 45.8943 50.3961C45.865 50.2868 45.8416 50.1994 45.8043 50.1039C45.767 50.0085 45.7298 49.9131 45.6845 49.8315C45.6333 49.7281 45.5801 49.6604 45.5129 49.5847C45.4538 49.4951 45.3866 49.4194 45.3195 49.3437C45.2305 49.2738 45.1474 49.2258 45.0722 49.164C44.9752 49.108 44.8921 49.06 44.817 48.9981C44.72 48.9421 44.623 48.8861 44.5398 48.8381C44.4727 48.7624 44.3917 48.6787 44.3246 48.603C44.2654 48.5134 44.1983 48.4377 44.153 48.3561C44.0939 48.2665 44.0347 48.177 43.9974 48.0816C43.9383 47.992 43.893 47.9104 43.8419 47.807C43.7966 47.7254 43.7593 47.63 43.73 47.5207C43.7066 47.4333 43.6773 47.324 43.6539 47.2366C43.6385 47.1353 43.6092 47.026 43.6076 46.9327C43.6002 46.8176 43.5629 46.7222 43.5475 46.6209C43.5539 46.5137 43.5604 46.4066 43.5806 46.3075C43.5871 46.2003 43.6074 46.1012 43.6276 46.0021C43.6479 45.9029 43.6762 45.7899 43.7104 45.6988C43.7584 45.6156 43.8005 45.5107 43.8485 45.4275C43.8906 45.3225 43.9386 45.2394 43.9946 45.1424C44.0586 45.0315 44.0448 45.0235 44.1088 44.9127C44.1648 44.8157 44.2128 44.7325 44.2688 44.6356C44.3306 44.5604 44.4064 44.4933 44.4901 44.4123C44.5381 44.3291 44.5999 44.254 44.6836 44.173C44.7594 44.1059 44.8489 44.0467 44.9385 43.9876C45.0142 43.9205 45.0958 43.8752 45.1853 43.816C45.2749 43.7569 45.3703 43.7196 45.4658 43.6823C45.5553 43.6232 45.6508 43.5859 45.7462 43.5486C45.8416 43.5114 45.9488 43.5178 46.058 43.4885C46.1593 43.4731 46.2547 43.4358 46.356 43.4204C46.4632 43.4268 46.5703 43.4332 46.6694 43.4535C46.7707 43.4381 46.8859 43.4307 46.9791 43.4291C47.0863 43.4355 47.1854 43.4558 47.2926 43.4622C47.3837 43.4964 47.4967 43.5247 47.5878 43.5588C47.679 43.593 47.784 43.6351 47.8671 43.6831C47.9721 43.7252 48.0632 43.7594 48.1602 43.8154ZM48.2335 54.2408C48.0746 54.2599 48.1199 54.3415 48.0261 54.472C47.9461 54.6106 47.8906 54.5786 47.7909 54.6873C47.6694 54.8019 47.6971 54.8179 47.5894 54.9404C47.4816 55.063 47.4816 55.063 47.3739 55.1856C47.2662 55.3081 47.2801 55.3161 47.1724 55.4387C47.0726 55.5474 47.0449 55.5314 46.9372 55.654C46.8295 55.7765 46.8886 55.8661 46.7357 55.9071C46.5768 55.9262 46.5971 55.8271 46.4585 55.7471C46.32 55.6671 46.336 55.6394 46.2113 55.5674C46.0727 55.4874 46.0727 55.4874 45.9341 55.4074C45.7956 55.3274 45.7796 55.3551 45.6549 55.2831C45.641 55.2751 45.6629 55.2692 45.6629 55.2692C45.7706 55.1467 45.7844 55.1547 45.8841 55.046C45.9918 54.9234 45.9641 54.9074 46.0638 54.7987C46.1716 54.6761 46.1854 54.6841 46.2851 54.5754C46.3928 54.4528 46.379 54.4448 46.4787 54.3361C46.5864 54.2136 46.5864 54.2136 46.6861 54.1049C46.7858 53.9962 46.772 53.9882 46.8797 53.8656C46.9794 53.7569 46.9933 53.7649 47.101 53.6423C47.2007 53.5336 47.2145 53.5416 47.3143 53.4329C47.422 53.3103 47.4081 53.3023 47.5078 53.1936C47.6155 53.0711 47.6017 53.0631 47.7014 52.9544C47.8091 52.8318 47.8091 52.8318 47.9088 52.7231C48.0085 52.6144 48.0362 52.6304 48.136 52.5217C48.2437 52.3991 48.2437 52.3991 48.3434 52.2904C48.4511 52.1678 48.4234 52.1518 48.5231 52.0431C48.6308 51.9206 48.6308 51.9206 48.7305 51.8119C48.8382 51.6893 48.8579 51.7192 48.9657 51.5966C49.0654 51.4879 49.0654 51.4879 49.1731 51.3653C49.2728 51.2566 49.2451 51.2406 49.3528 51.118C49.4525 51.0093 49.4802 51.0253 49.5799 50.9166C49.6877 50.7941 49.6738 50.7861 49.7735 50.6774C49.8812 50.5548 49.9009 50.5847 50.0086 50.4621C50.1084 50.3534 50.0886 50.3235 50.1884 50.2148C50.2961 50.0923 50.3019 50.1141 50.4096 49.9915C50.5094 49.8828 50.5094 49.8828 50.6091 49.7741C50.7168 49.6516 50.6891 49.6356 50.7968 49.513C50.8965 49.4043 50.9103 49.4123 51.0101 49.3036C51.1178 49.181 51.1236 49.2029 51.2313 49.0803C51.3311 48.9716 51.2975 48.9338 51.3972 48.825C51.5049 48.7025 51.5246 48.7323 51.6323 48.6098C51.732 48.5011 51.732 48.5011 51.8398 48.3785C51.9395 48.2698 51.9395 48.2698 52.0392 48.1611C52.1469 48.0385 52.1608 48.0465 52.2605 47.9378C52.3682 47.8152 52.3405 47.7992 52.4402 47.6905C52.5479 47.568 52.5676 47.5978 52.6753 47.4753C52.775 47.3666 52.7612 47.3586 52.8689 47.236C52.9686 47.1273 52.9489 47.0974 53.0486 46.9887C53.1483 46.88 53.176 46.896 53.2757 46.7873L53.2677 46.8012C53.4063 46.8812 53.4143 46.8673 53.539 46.9393C53.6776 47.0193 53.6856 47.0055 53.8241 47.0855C53.9488 47.1575 53.9409 47.1713 54.0794 47.2513C54.218 47.3313 54.226 47.3175 54.3645 47.3975C54.3645 47.3975 54.3645 47.3975 54.3784 47.4055L54.3427 47.4033C54.2904 47.5579 54.3261 47.56 54.2738 47.7146C54.2295 47.8553 54.18 47.8451 54.1357 47.9859C54.0914 48.1266 54.1053 48.1346 54.053 48.2891C54.0087 48.4298 54.0087 48.4298 53.9564 48.5844C53.9121 48.7251 53.9121 48.7251 53.8678 48.8658C53.8155 49.0204 53.8294 49.0284 53.7851 49.1691C53.7408 49.3098 53.719 49.3156 53.6747 49.4564C53.6224 49.6109 53.6581 49.6131 53.6058 49.7676C53.5615 49.9083 53.5338 49.8923 53.4815 50.0469C53.4372 50.1876 53.4511 50.1956 53.3988 50.3502C53.3545 50.4909 53.3684 50.4989 53.3241 50.6396C53.2798 50.7803 53.2441 50.7782 53.1998 50.9189C53.1475 51.0734 53.1475 51.0734 53.1032 51.2141C53.0509 51.3687 53.0728 51.3628 53.0205 51.5174C52.9762 51.6581 52.9624 51.6501 52.9101 51.8047C52.8658 51.9454 52.8658 51.9454 52.8135 52.0999C52.7692 52.2407 52.7692 52.2407 52.7169 52.3952C52.6726 52.5359 52.6588 52.5279 52.6065 52.6825C52.5622 52.8232 52.5622 52.8232 52.5179 52.9639C52.4656 53.1185 52.4795 53.1265 52.4352 53.2672C52.3909 53.4079 52.3691 53.4137 52.3248 53.5544C52.2725 53.709 52.2943 53.7032 52.242 53.8577C52.1978 53.9984 52.2116 54.0064 52.1673 54.1471C52.115 54.3017 52.115 54.3017 52.0708 54.4424C52.0185 54.597 52.0046 54.589 51.9603 54.7297C51.908 54.8842 51.9299 54.8784 51.8776 55.033C51.8333 55.1737 51.8115 55.1795 51.7672 55.3202C51.7229 55.4609 51.7229 55.4609 51.6706 55.6155C51.6263 55.7562 51.6263 55.7562 51.574 55.9108C51.5297 56.0515 51.5297 56.0515 51.4775 56.206C51.4332 56.3467 51.4193 56.3387 51.375 56.4795C51.3227 56.634 51.3227 56.634 51.2784 56.7747C51.2262 56.9293 51.2262 56.9293 51.1819 57.07C51.1296 57.2246 51.1296 57.2246 51.0853 57.3653C51.041 57.506 51.0549 57.514 51.0026 57.6685C50.9583 57.8092 50.9722 57.8172 50.9279 57.958C50.8756 58.1125 50.9507 58.1744 50.8116 58.2234C50.6644 58.2862 50.6789 58.1652 50.5403 58.0852C50.4156 58.0132 50.4236 57.9994 50.285 57.9194C50.1465 57.8394 50.1225 57.8809 49.9978 57.8089C49.8592 57.7289 49.8832 57.6874 49.7446 57.6074L49.7366 57.6212C49.7889 57.4667 49.7751 57.4587 49.8274 57.3041C49.8716 57.1634 49.8578 57.1554 49.9101 57.0008C49.9624 56.8463 49.9762 56.8543 50.0285 56.6997C50.0728 56.559 50.0946 56.5531 50.1389 56.4124C50.1912 56.2579 50.2051 56.2659 50.2574 56.1113C50.3096 55.9567 50.3096 55.9567 50.3539 55.816C50.4062 55.6615 50.4856 55.6519 50.4228 55.5048C50.3599 55.3576 50.2842 55.4248 50.1457 55.3448C50.0071 55.2648 50.0231 55.237 49.8984 55.165C49.7598 55.085 49.7518 55.0989 49.6133 55.0189C49.4747 54.9389 49.4667 54.9528 49.3281 54.8728C49.1896 54.7928 49.1896 54.7928 49.051 54.7128C48.9124 54.6328 48.9124 54.6328 48.7739 54.5528C48.6353 54.4728 48.6433 54.4589 48.5048 54.3789C48.3662 54.2989 48.3785 54.2136 48.2335 54.2408ZM49.0712 53.3018C49.0845 53.4388 49.15 53.4212 49.3046 53.4735C49.4037 53.4938 49.4869 53.5418 49.562 53.6037C49.6867 53.6757 49.6787 53.6895 49.8034 53.7615C49.9281 53.8335 49.9361 53.8197 50.0608 53.8917C50.1856 53.9637 50.1936 53.9498 50.3183 54.0218C50.443 54.0938 50.443 54.0938 50.5677 54.1658C50.6924 54.2378 50.6838 54.3807 50.823 54.3317C50.9562 54.2608 50.8614 54.1691 50.9057 54.0284C50.958 53.8738 50.9718 53.8818 51.0161 53.7411C51.0684 53.5866 51.0545 53.5786 51.0988 53.4379C51.1431 53.2971 51.157 53.3051 51.2092 53.1506C51.2535 53.0099 51.2535 53.0099 51.3058 52.8553C51.3501 52.7146 51.3501 52.7146 51.4024 52.56C51.4467 52.4193 51.4467 52.4193 51.491 52.2786C51.5571 52.1321 51.5571 52.1321 51.6014 51.9914C51.6537 51.8368 51.6537 51.8368 51.698 51.6961C51.7503 51.5415 51.7284 51.5474 51.7807 51.3928C51.825 51.2521 51.8111 51.2441 51.8554 51.1034C51.9077 50.9488 51.9354 50.9648 51.9877 50.8103C52.032 50.6696 52.0181 50.6616 52.0624 50.5208C52.1067 50.3801 52.1286 50.3743 52.1728 50.2336C52.2251 50.079 52.1894 50.0769 52.2337 49.9362C52.286 49.7816 52.4987 49.7012 52.3601 49.6212C52.2216 49.5412 52.2444 49.7576 52.1447 49.8663C52.037 49.9889 52.0509 49.9969 51.9511 50.1056C51.8434 50.2281 51.8434 50.2281 51.7437 50.3368C51.636 50.4594 51.636 50.4594 51.5363 50.5681C51.4366 50.6768 51.4227 50.6688 51.323 50.7775C51.2153 50.9001 51.2014 50.8921 51.1017 51.0008C51.002 51.1095 51.002 51.1095 50.8943 51.2321C50.7946 51.3408 50.8143 51.3706 50.7146 51.4794C50.6069 51.6019 50.6149 51.5881 50.5072 51.7106C50.4075 51.8193 50.3797 51.8033 50.28 51.912C50.1723 52.0346 50.1862 52.0426 50.0865 52.1513C49.9787 52.2739 49.9926 52.2819 49.8929 52.3906C49.7852 52.5131 49.7852 52.5131 49.6855 52.6219C49.5778 52.7444 49.5858 52.7306 49.478 52.8531C49.3783 52.9618 49.3645 52.9538 49.2648 53.0625C49.157 53.1851 49.044 53.1568 49.0712 53.3018ZM58.2946 49.6665C58.3217 49.8114 58.2503 49.8072 58.1207 49.9356C58.0589 50.0107 58.0029 50.1077 57.9687 50.1989C57.8887 50.3374 57.8749 50.3294 57.7949 50.468C57.7149 50.6065 57.7426 50.6225 57.6706 50.7473C57.5906 50.8858 57.5767 50.8778 57.4967 51.0164C57.4247 51.1411 57.4386 51.1491 57.3586 51.2877C57.2786 51.4262 57.2647 51.4182 57.1847 51.5568C57.1127 51.6815 57.1127 51.6815 57.0327 51.8201C56.9527 51.9586 56.9527 51.9586 56.8807 52.0833C56.8007 52.2219 56.7869 52.2139 56.7069 52.3525C56.6349 52.4772 56.6407 52.499 56.5687 52.6237C56.4887 52.7623 56.4749 52.7543 56.3949 52.8929C56.3229 53.0176 56.3506 53.0336 56.2706 53.1721C56.1906 53.3107 56.1629 53.2947 56.0829 53.4333C56.0109 53.558 56.0247 53.566 55.9447 53.7045C55.8647 53.8431 55.8509 53.8351 55.7789 53.9598C55.6989 54.0984 55.6989 54.0984 55.6189 54.2369C55.5389 54.3755 55.5666 54.3915 55.4946 54.5162C55.4146 54.6548 55.4146 54.6548 55.3346 54.7933C55.2626 54.918 55.2626 54.918 55.1826 55.0566C55.1026 55.1952 55.0887 55.1872 55.0087 55.3257C54.9367 55.4504 54.9506 55.4584 54.8706 55.597C54.7906 55.7356 54.7767 55.7276 54.7047 55.8523C54.6247 55.9908 54.6109 55.9828 54.5309 56.1214C54.4589 56.2461 54.437 56.252 54.365 56.3767C54.285 56.5152 54.285 56.5152 54.205 56.6538C54.133 56.7785 54.1469 56.7865 54.0669 56.9251C53.9869 57.0636 53.9869 57.0636 53.9069 57.2022C53.8349 57.3269 53.8349 57.3269 53.7549 57.4655C53.6749 57.604 53.6749 57.604 53.6029 57.7287C53.5229 57.8673 53.5506 57.8833 53.4706 58.0219C53.3906 58.1604 53.2856 58.1183 53.3266 58.2713C53.3676 58.4243 53.4433 58.3571 53.568 58.4291C53.7065 58.5091 53.7065 58.5091 53.8451 58.5891C53.9837 58.6691 53.9757 58.683 54.1004 58.755C54.2389 58.835 54.2549 58.8073 54.3935 58.8873C54.5321 58.9673 54.5241 58.9811 54.6626 59.0611C54.7873 59.1331 54.7873 59.1331 54.9259 59.2131C55.0645 59.2931 55.0565 59.307 55.195 59.387C55.3336 59.467 55.3496 59.4393 55.4743 59.5113C55.6129 59.5913 55.5969 59.619 55.7354 59.699C55.874 59.779 55.866 59.7929 55.9907 59.8649C56.1293 59.9449 56.1453 59.9171 56.2838 59.9971C56.4224 60.0771 56.4224 60.0771 56.561 60.1571C56.6857 60.2291 56.6777 60.243 56.8162 60.323C56.9548 60.403 56.9628 60.3891 57.1014 60.4691C57.2261 60.5411 57.3375 60.4761 57.3785 60.6291C57.4195 60.7821 57.2708 60.7517 57.1988 60.8764C57.1188 61.015 57.1465 61.031 57.0745 61.1557C56.9945 61.2942 56.9668 61.2782 56.8948 61.403C56.8148 61.5415 56.9016 61.6471 56.7486 61.6881C56.6175 61.7232 56.6021 61.6219 56.4774 61.5499C56.3388 61.4699 56.3388 61.4699 56.2002 61.3899C56.0617 61.3099 56.0697 61.2961 55.945 61.2241C55.8064 61.1441 55.8224 61.1164 55.6838 61.0364C55.5453 60.9564 55.5453 60.9564 55.4067 60.8764C55.282 60.8044 55.274 60.8182 55.1354 60.7382C54.9969 60.6582 54.9809 60.6859 54.8423 60.6059C54.7037 60.5259 54.7037 60.5259 54.579 60.4539C54.4405 60.3739 54.4405 60.3739 54.3019 60.2939C54.1633 60.2139 54.1713 60.2001 54.0466 60.1281C53.9081 60.0481 53.9001 60.0619 53.7615 59.9819C53.6229 59.9019 53.6389 59.8742 53.5004 59.7942C53.3757 59.7222 53.3757 59.7222 53.2371 59.6422C53.0985 59.5622 53.0985 59.5622 52.96 59.4822C52.8353 59.4102 52.8433 59.3964 52.7047 59.3164L52.6887 59.3441C52.5501 59.2641 52.5421 59.2779 52.4174 59.2059C52.2789 59.1259 52.2949 59.0982 52.1702 59.0262C52.0316 58.9462 52.0316 58.9462 51.9069 58.8742C51.7683 58.7942 51.7683 58.7942 51.6436 58.7222L51.6218 58.7281C51.7018 58.5895 51.7295 58.6055 51.8015 58.4808C51.8815 58.3422 51.8538 58.3262 51.9338 58.1877C52.0058 58.063 52.0058 58.063 52.0858 57.9244C52.1578 57.7997 52.1855 57.8157 52.2655 57.6771C52.3375 57.5524 52.3236 57.5444 52.4036 57.4059C52.4836 57.2673 52.4698 57.2593 52.5498 57.1207C52.6218 56.996 52.6495 57.012 52.7295 56.8735C52.8095 56.7349 52.7956 56.7269 52.8676 56.6022C52.9476 56.4636 52.9476 56.4636 53.0276 56.3251C53.0996 56.2004 53.1215 56.1945 53.1935 56.0698C53.2735 55.9312 53.2319 55.9072 53.3119 55.7687C53.3839 55.644 53.4255 55.668 53.5055 55.5294C53.5855 55.3908 53.5716 55.3828 53.6516 55.2443C53.7236 55.1196 53.7375 55.1276 53.8175 54.989C53.8975 54.8504 53.8698 54.8344 53.9418 54.7097C54.0218 54.5712 54.0495 54.5872 54.1295 54.4486C54.2095 54.31 54.1818 54.294 54.2538 54.1693C54.3338 54.0308 54.3338 54.0308 54.4138 53.8922C54.4858 53.7675 54.5135 53.7835 54.5935 53.6449C54.6735 53.5064 54.6458 53.4904 54.7258 53.3518C54.7978 53.2271 54.8116 53.2351 54.8916 53.0965C54.9716 52.958 54.9439 52.942 55.0159 52.8173C55.0959 52.6787 55.1098 52.6867 55.1898 52.5481C55.2698 52.4096 55.2836 52.4176 55.3556 52.2929C55.4356 52.1543 55.4356 52.1543 55.5156 52.0157C55.5876 51.891 55.6015 51.899 55.6815 51.7605C55.7615 51.6219 55.7615 51.6219 55.8415 51.4833C55.9135 51.3586 55.9135 51.3586 55.9935 51.2201C56.0735 51.0815 56.0735 51.0815 56.1455 50.9568C56.2255 50.8182 56.1978 50.8022 56.2778 50.6637C56.3578 50.5251 56.3578 50.5251 56.4298 50.4004C56.5098 50.2618 56.5375 50.2778 56.6175 50.1393C56.6895 50.0145 56.6618 49.9985 56.7418 49.86C56.8218 49.7214 56.8218 49.7214 56.9018 49.5829C56.9738 49.4581 56.9876 49.4661 57.0676 49.3276C57.1476 49.189 57.0746 49.0914 57.2138 49.0425C57.3668 49.0015 57.3523 49.1225 57.4909 49.2025C57.6156 49.2745 57.6076 49.2883 57.7462 49.3683C57.8709 49.4403 57.8629 49.4542 58.0014 49.5342C58.1261 49.6062 58.2536 49.5135 58.2946 49.6665ZM64.0935 52.996C64.0935 52.996 64.0556 53.0295 64.0695 53.0375C64.208 53.1175 64.224 53.0898 64.3626 53.1698C64.4873 53.2418 64.4793 53.2557 64.6179 53.3357C64.7564 53.4157 64.7724 53.388 64.911 53.468C65.0496 53.548 65.0256 53.5895 65.1503 53.6615C65.2888 53.7415 65.2888 53.7415 65.4274 53.8215C65.566 53.9015 65.582 53.8738 65.7067 53.9458C65.8452 54.0258 65.8532 54.012 65.9918 54.092C66.1304 54.172 66.1224 54.1858 66.2609 54.2658C66.3856 54.3378 66.3776 54.3517 66.5162 54.4317C66.6548 54.5117 66.6708 54.484 66.8093 54.564C66.934 54.636 66.918 54.6637 67.0566 54.7437C67.1952 54.8237 67.1872 54.8375 67.3257 54.9175C67.4643 54.9975 67.4803 54.9698 67.605 55.0418C67.7436 55.1218 67.7436 55.1218 67.8821 55.2018C68.0207 55.2818 68.1183 55.2088 68.1592 55.3618C68.2082 55.501 68.0792 55.5004 67.9992 55.639C67.9272 55.7637 67.9272 55.7637 67.8472 55.9022C67.7752 56.0269 67.7752 56.0269 67.6952 56.1655C67.6232 56.2902 67.6824 56.3798 67.5374 56.4069C67.3844 56.4479 67.3967 56.3626 67.2581 56.2826C67.1196 56.2026 67.1356 56.1749 66.997 56.0949C66.8723 56.0229 66.8643 56.0368 66.7257 55.9568C66.5872 55.8768 66.6032 55.8491 66.4646 55.7691C66.326 55.6891 66.31 55.7168 66.1853 55.6448C66.0468 55.5648 66.0628 55.5371 65.9242 55.4571C65.7856 55.3771 65.7776 55.3909 65.6529 55.3189C65.5144 55.2389 65.5064 55.2528 65.3678 55.1728C65.2292 55.0928 65.2292 55.0928 65.0907 55.0128C64.966 54.9408 64.966 54.9408 64.8274 54.8608C64.6888 54.7808 64.6808 54.7946 64.5423 54.7146C64.4037 54.6346 64.4037 54.6346 64.279 54.5626C64.1404 54.4826 64.1564 54.4549 64.0179 54.3749C63.8793 54.2949 63.8793 54.2949 63.7546 54.2229C63.616 54.1429 63.6283 54.0576 63.4753 54.0986C63.3223 54.1396 63.4113 54.2095 63.3313 54.348C63.2513 54.4866 63.2652 54.4946 63.1852 54.6332C63.1052 54.7717 63.1052 54.7717 63.0332 54.8964C62.9532 55.035 62.9393 55.027 62.8593 55.1656C62.7793 55.3041 62.7655 55.2961 62.6855 55.4347C62.6135 55.5594 62.6273 55.5674 62.5473 55.706C62.4673 55.8445 62.4673 55.8445 62.3873 55.9831C62.3153 56.1078 62.3153 56.1078 62.2353 56.2464C62.1553 56.3849 62.1692 56.3929 62.0892 56.5315C62.0092 56.6701 61.9815 56.6541 61.9095 56.7788C61.8295 56.9173 61.8156 56.9093 61.7356 57.0479C61.6556 57.1865 61.5485 57.18 61.5756 57.325C61.6166 57.478 61.7142 57.405 61.8389 57.477C61.9636 57.549 61.9774 57.557 62.1021 57.629C62.2269 57.701 62.2429 57.6733 62.3676 57.7453C62.4923 57.8173 62.4763 57.845 62.601 57.917C62.7395 57.997 62.7475 57.9832 62.8723 58.0552C62.997 58.1272 62.989 58.141 63.1137 58.213C63.2384 58.285 63.2464 58.2712 63.3711 58.3432C63.4958 58.4152 63.5854 58.356 63.6125 58.501C63.6535 58.654 63.5682 58.6417 63.4882 58.7803C63.4162 58.905 63.3746 58.881 63.2946 59.0196C63.2226 59.1443 63.2365 59.1523 63.1565 59.2908C63.0845 59.4156 63.1633 59.535 63.0242 59.584C62.8792 59.6111 62.8878 59.4683 62.7631 59.3963C62.6384 59.3243 62.6304 59.3381 62.5057 59.2661L62.2563 59.1221C62.1177 59.0421 62.1097 59.056 61.985 58.984C61.8603 58.912 61.8603 58.912 61.7356 58.84C61.6109 58.768 61.6269 58.7403 61.5021 58.6683C61.3636 58.5883 61.3556 58.6021 61.2309 58.5301C61.1062 58.4581 61.1286 58.3233 60.9756 58.3643C60.8365 58.4133 60.9095 58.5108 60.8295 58.6494C60.7495 58.788 60.7495 58.788 60.6695 58.9265L60.5175 59.1898C60.4375 59.3284 60.4375 59.3284 60.3575 59.4669C60.2775 59.6055 60.2913 59.6135 60.2193 59.7382C60.1393 59.8768 60.1116 59.8608 60.0316 59.9993C59.9516 60.1379 59.9516 60.1379 59.8716 60.2764C59.7996 60.4012 59.8273 60.4172 59.7473 60.5557C59.6673 60.6943 59.6673 60.6943 59.5873 60.8328C59.5153 60.9576 59.5015 60.9496 59.4215 61.0881C59.3415 61.2267 59.3276 61.2187 59.2476 61.3572C59.1676 61.4958 59.0466 61.4814 59.0876 61.6344C59.1286 61.7874 59.248 61.7085 59.3866 61.7885C59.5252 61.8685 59.5332 61.8547 59.6579 61.9267C59.7964 62.0067 59.7884 62.0205 59.927 62.1005C60.0656 62.1805 60.0576 62.1944 60.1823 62.2664C60.3208 62.3464 60.3368 62.3187 60.4754 62.3987C60.614 62.4787 60.598 62.5064 60.7365 62.5864C60.8612 62.6584 60.8772 62.6307 61.0158 62.7107C61.1544 62.7907 61.1304 62.8322 61.2689 62.9122C61.3936 62.9842 61.4096 62.9565 61.5482 63.0365C61.6868 63.1165 61.6788 63.1304 61.8173 63.2104C61.9559 63.2904 61.9719 63.2627 62.0966 63.3347C62.2352 63.4147 62.2192 63.4424 62.3577 63.5224C62.4963 63.6024 62.5123 63.5747 62.637 63.6467C62.7756 63.7267 62.7516 63.7682 62.8901 63.8482C63.0287 63.9282 63.1204 63.8334 63.1614 63.9864C63.2024 64.1394 63.0755 64.1031 63.0035 64.2278C62.9235 64.3664 62.9512 64.3824 62.8792 64.5071C62.7992 64.6456 62.8131 64.6536 62.7331 64.7922C62.6611 64.9169 62.7064 64.9985 62.5672 65.0475C62.4223 65.0746 62.4447 64.9397 62.3061 64.8597C62.1676 64.7797 62.1436 64.8213 62.005 64.7413C61.8803 64.6693 61.9043 64.6277 61.7657 64.5477C61.6272 64.4677 61.6272 64.4677 61.4886 64.3877C61.3639 64.3157 61.3479 64.3435 61.2093 64.2635C61.0708 64.1835 61.0628 64.1973 60.9242 64.1173C60.7856 64.0373 60.7936 64.0235 60.6689 63.9515C60.5304 63.8715 60.5464 63.8437 60.4078 63.7637C60.2692 63.6837 60.2612 63.6976 60.1365 63.6256C59.998 63.5456 59.99 63.5595 59.8514 63.4795C59.7128 63.3995 59.7048 63.4133 59.5663 63.3333C59.4416 63.2613 59.4656 63.2197 59.327 63.1397C59.1884 63.0597 59.1724 63.0875 59.0339 63.0075C58.9092 62.9355 58.9252 62.9077 58.7866 62.8277C58.648 62.7477 58.632 62.7755 58.4935 62.6955C58.3688 62.6235 58.3768 62.6096 58.2382 62.5296C58.1135 62.4576 58.0975 62.4853 57.9589 62.4053C57.8342 62.3333 57.8582 62.2917 57.7196 62.2117C57.5949 62.1397 57.4894 62.2266 57.4484 62.0736C57.4212 61.9286 57.5342 61.9569 57.6142 61.8183C57.6862 61.6936 57.6585 61.6776 57.7385 61.5391C57.8105 61.4144 57.8382 61.4304 57.9182 61.2918C57.9902 61.1671 57.9902 61.1671 58.0702 61.0285C58.1422 60.9038 58.1422 60.9038 58.2222 60.7652C58.3022 60.6267 58.3022 60.6267 58.3822 60.4881C58.4622 60.3496 58.4345 60.3336 58.5065 60.2088C58.5865 60.0703 58.6142 60.0863 58.6942 59.9477C58.7742 59.8092 58.7604 59.8012 58.8404 59.6626C58.9124 59.5379 58.9262 59.5459 59.0062 59.4073C59.0862 59.2688 59.0447 59.2448 59.1247 59.1062C59.1967 58.9815 59.2244 58.9975 59.3044 58.8589C59.3844 58.7204 59.3982 58.7284 59.4782 58.5898C59.5582 58.4512 59.5305 58.4352 59.6025 58.3105C59.6825 58.172 59.7102 58.188 59.7902 58.0494C59.8702 57.9108 59.8702 57.9108 59.9422 57.7861C60.0222 57.6476 59.9807 57.6236 60.0527 57.4988C60.1327 57.3603 60.1604 57.3763 60.2404 57.2377C60.3124 57.113 60.3262 57.121 60.4062 56.9824C60.4782 56.8577 60.4921 56.8657 60.5721 56.7272C60.6441 56.6025 60.6302 56.5945 60.7102 56.4559C60.7902 56.3173 60.7625 56.3013 60.8425 56.1628C60.9225 56.0242 60.9225 56.0242 60.9945 55.8995C61.0745 55.7609 61.0745 55.7609 61.1545 55.6224C61.2345 55.4838 61.2622 55.4998 61.3342 55.3751C61.4142 55.2365 61.3865 55.2205 61.4665 55.082C61.5465 54.9434 61.5465 54.9434 61.6265 54.8048C61.6985 54.6801 61.7124 54.6881 61.7924 54.5496C61.8724 54.411 61.8862 54.419 61.9662 54.2804C62.0382 54.1557 62.0105 54.1397 62.0905 54.0012C62.1705 53.8626 62.1844 53.8706 62.2644 53.732C62.3444 53.5935 62.3305 53.5855 62.4025 53.4608C62.4825 53.3222 62.5102 53.3382 62.5822 53.2135C62.6622 53.0749 62.6622 53.0749 62.7342 52.9502C62.8142 52.8117 62.8004 52.8037 62.8724 52.679C62.9524 52.5404 62.9662 52.5484 63.0462 52.4098L63.0324 52.4018C63.1571 52.4738 63.1571 52.4738 63.2956 52.5538C63.4342 52.6338 63.4262 52.6477 63.5509 52.7197C63.6895 52.7997 63.6975 52.7858 63.8222 52.8578C63.9608 52.9378 63.9688 52.924 64.0935 52.996Z" fill="#FFFCFA"/>
</svg>
